<mxfile host="app.diagrams.net" modified="2023-08-25T13:26:52.539Z" agent="Mozilla/5.0 (Macintosh; Intel Mac OS X 10_15_7) AppleWebKit/537.36 (KHTML, like Gecko) Chrome/116.0.0.0 Safari/537.36" version="21.6.9" etag="WmN5ZJm1aR0v_GylNtn9" type="github">
  <diagram name="第 1 页" id="FkgbqwayRcXkIYXFaPXN">
    <mxGraphModel>
      <root>
        <mxCell id="0" />
        <mxCell id="1" parent="0" />
      </root>
    </mxGraphModel>
  </diagram>
</mxfile>
